<svg width="20" height="20" viewBox="0 0 20 20" fill="none" xmlns="http://www.w3.org/2000/svg">
    <path fill-rule="evenodd" clip-rule="evenodd" d="M1 6C1 4.34315 2.34315 3 4 3H16C17.6569 3 19 4.34315 19 6V14C19 15.6569 17.6569 17 16 17H4C2.34315 17 1 15.6569 1 14V6ZM4 5C3.44772 5 3 5.44772 3 6V14C3 14.5523 3.44772 15 4 15H16C16.5523 15 17 14.5523 17 14V6C17 5.44772 16.5523 5 16 5H4Z" fill="#10142D"/>
    <path fill-rule="evenodd" clip-rule="evenodd" d="M9.48535 9.85756L1.98535 5.35756L3.01434 3.64258L9.99985 7.83388L16.9854 3.64258L18.0143 5.35756L10.5143 9.85756C10.1977 10.0476 9.80203 10.0476 9.48535 9.85756Z" fill="#10142D"/>
</svg>
