<svg width="21" height="20" viewBox="0 0 21 20" fill="none" xmlns="http://www.w3.org/2000/svg">
    <g clip-path="url(#clip0_2301_2747)">
        <path fill-rule="evenodd" clip-rule="evenodd" d="M4.86392 1.87786C5.61267 0.81839 6.96463 1.01958 7.65679 1.71173L9.79063 3.84557C10.6008 4.65574 10.4637 5.80961 10.1009 6.52244C9.9685 6.78262 9.90444 7.03657 9.91722 7.25921C9.92856 7.45678 10.0021 7.69356 10.269 7.96051L12.8123 10.5038C13.0793 10.7708 13.3161 10.8443 13.5136 10.8556C13.7363 10.8684 13.9902 10.8043 14.2504 10.6719C14.9632 10.3092 16.1171 10.1721 16.9273 10.9822L19.0611 13.1161C19.7533 13.8082 19.9545 15.1602 18.895 15.9089C17.875 16.6298 16.4019 17.1976 14.8595 17.2822C13.2988 17.3678 11.5894 16.9581 10.2454 15.6141L5.1588 10.5274C3.81476 9.18342 3.40504 7.474 3.49065 5.91332C3.57526 4.37091 4.1431 2.89781 4.86392 1.87786ZM6.35819 3.24156L8.37534 5.25871C8.37894 5.26536 8.38622 5.28428 8.38833 5.32481C8.39232 5.40118 8.3724 5.50931 8.31843 5.61536C8.07745 6.08891 7.88175 6.69844 7.9205 7.37378C7.96069 8.0742 8.24999 8.76991 8.85481 9.37473L11.3981 11.918C12.0029 12.5229 12.6986 12.8122 13.3991 12.8523C14.0744 12.8911 14.6839 12.6954 15.1575 12.4544C15.2635 12.4004 15.3717 12.3805 15.448 12.3845C15.4886 12.3866 15.5075 12.3939 15.5141 12.3975L17.5313 14.4147C16.8136 14.8628 15.7998 15.2276 14.75 15.2852C13.6117 15.3476 12.5091 15.0494 11.6596 14.1998L6.57301 9.11323C5.72349 8.26371 5.42521 7.16113 5.48765 6.02287C5.54524 4.97305 5.91003 3.95928 6.35819 3.24156Z" fill="black"/>
    </g>
    <defs>
        <clipPath id="clip0_2301_2747">
            <rect width="20" height="20" fill="white" transform="translate(0.666504)"/>
        </clipPath>
    </defs>
</svg>
