<svg width="21" height="20" viewBox="0 0 21 20" fill="none" xmlns="http://www.w3.org/2000/svg">
    <path fill-rule="evenodd" clip-rule="evenodd" d="M17.8335 9.80697C17.8335 13.8423 14.5368 17.1136 10.4698 17.1136C9.1787 17.1136 7.96572 16.7836 6.91035 16.2046L2.8335 17.5L4.16241 13.5796C3.49199 12.4783 3.10593 11.1871 3.10593 9.80692C3.10593 5.77132 6.40277 2.5 10.4698 2.5C14.5368 2.50004 17.8335 5.77137 17.8335 9.80697ZM10.4698 3.6637C7.05581 3.6637 4.27882 6.41967 4.27882 9.80697C4.27882 11.151 4.71695 12.396 5.45805 13.4087L4.68473 15.6899L7.06384 14.9337C8.04151 15.5754 9.21229 15.9499 10.4698 15.9499C13.8834 15.9499 16.6608 13.1942 16.6608 9.80692C16.6608 6.41967 13.8835 3.6637 10.4698 3.6637ZM14.1882 11.4896C14.1428 11.415 14.0225 11.3701 13.8423 11.2807C13.6616 11.1911 12.7739 10.7577 12.6087 10.6981C12.443 10.6384 12.3226 10.6084 12.2023 10.7876C12.0821 10.9672 11.7362 11.3701 11.6307 11.4896C11.5254 11.6093 11.4204 11.6242 11.2397 11.5346C11.0595 11.445 10.4777 11.256 9.78817 10.6457C9.25164 10.1711 8.8893 9.58503 8.78398 9.40555C8.67866 9.22634 8.77284 9.12947 8.86311 9.04031C8.94434 8.95976 9.04364 8.83099 9.13401 8.72668C9.22428 8.62188 9.25428 8.54736 9.31434 8.42783C9.37481 8.30825 9.34434 8.20377 9.29939 8.11393C9.25428 8.02456 8.89316 7.14307 8.74273 6.78459C8.59231 6.42611 8.4423 6.48585 8.33677 6.48585C8.2314 6.48585 8.11118 6.47085 7.99065 6.47085C7.87028 6.47085 7.67464 6.5158 7.50931 6.69485C7.34394 6.87422 6.87776 7.30734 6.87776 8.18861C6.87776 9.07005 7.52437 9.92154 7.61474 10.041C7.7049 10.1601 8.86305 12.0274 10.6979 12.7448C12.5335 13.4615 12.5335 13.2227 12.8644 13.1924C13.195 13.1629 13.9321 12.7595 14.0827 12.3412C14.2331 11.923 14.2331 11.5642 14.1882 11.4896Z" fill="#10142D"/>
</svg>
