<svg width="16" height="16" viewBox="0 0 16 16" fill="none" xmlns="http://www.w3.org/2000/svg">
    <path fill-rule="evenodd" clip-rule="evenodd" d="M4 0C1.79086 0 0 1.79086 0 4V12C0 14.2091 1.79086 16 4 16H12C14.2091 16 16 14.2091 16 12V4C16 1.79086 14.2091 0 12 0H4Z" fill="#319CF3"/>
    <path fill-rule="evenodd" clip-rule="evenodd" d="M12.6402 4.2318C13.0645 4.58537 13.1218 5.21593 12.7682 5.64021L7.76822 11.6402C7.58835 11.856 7.32599 11.9863 7.04531 11.999C6.76464 12.0117 6.49156 11.9058 6.29289 11.7071L3.79289 9.20713C3.40237 8.81661 3.40237 8.18344 3.79289 7.79292C4.18342 7.40239 4.81658 7.40239 5.20711 7.79292L6.9328 9.51861L11.2318 4.35984C11.5853 3.93556 12.2159 3.87824 12.6402 4.2318Z" fill="#FCFCFD"/>
</svg>
