<svg width="132" height="132" viewBox="0 0 132 132" fill="none" xmlns="http://www.w3.org/2000/svg">
    <g filter="url(#filter0_dd_1681_14673)">
        <path d="M24 24C24 19.5817 27.5817 16 32 16H100C104.418 16 108 19.5817 108 24V92C108 96.4183 104.418 100 100 100H32C27.5817 100 24 96.4183 24 92V24Z" fill="#FCFCFF"/>
        <path d="M50.944 61.232V62H45.052V61.388L48.544 57.968C48.984 57.536 49.28 57.164 49.432 56.852C49.592 56.532 49.672 56.212 49.672 55.892C49.672 55.396 49.5 55.012 49.156 54.74C48.82 54.46 48.336 54.32 47.704 54.32C46.72 54.32 45.956 54.632 45.412 55.256L44.8 54.728C45.128 54.344 45.544 54.048 46.048 53.84C46.56 53.632 47.136 53.528 47.776 53.528C48.632 53.528 49.308 53.732 49.804 54.14C50.308 54.54 50.56 55.092 50.56 55.796C50.56 56.228 50.464 56.644 50.272 57.044C50.08 57.444 49.716 57.904 49.18 58.424L46.324 61.232H50.944ZM56.8403 57.596C57.3683 57.772 57.7723 58.036 58.0523 58.388C58.3403 58.74 58.4843 59.164 58.4843 59.66C58.4843 60.148 58.3523 60.576 58.0883 60.944C57.8243 61.304 57.4443 61.584 56.9483 61.784C56.4603 61.976 55.8843 62.072 55.2203 62.072C54.2123 62.072 53.4203 61.856 52.8443 61.424C52.2683 60.992 51.9803 60.404 51.9803 59.66C51.9803 59.156 52.1163 58.732 52.3883 58.388C52.6683 58.036 53.0723 57.772 53.6003 57.596C53.1683 57.428 52.8403 57.188 52.6163 56.876C52.3923 56.556 52.2803 56.18 52.2803 55.748C52.2803 55.068 52.5443 54.528 53.0723 54.128C53.6083 53.728 54.3243 53.528 55.2203 53.528C55.8123 53.528 56.3283 53.62 56.7683 53.804C57.2163 53.98 57.5643 54.236 57.8123 54.572C58.0603 54.908 58.1843 55.3 58.1843 55.748C58.1843 56.18 58.0683 56.556 57.8363 56.876C57.6043 57.188 57.2723 57.428 56.8403 57.596ZM53.1443 55.772C53.1443 56.236 53.3283 56.604 53.6963 56.876C54.0643 57.148 54.5723 57.284 55.2203 57.284C55.8683 57.284 56.3763 57.148 56.7443 56.876C57.1203 56.604 57.3083 56.24 57.3083 55.784C57.3083 55.312 57.1163 54.94 56.7323 54.668C56.3563 54.396 55.8523 54.26 55.2203 54.26C54.5803 54.26 54.0723 54.396 53.6963 54.668C53.3283 54.94 53.1443 55.308 53.1443 55.772ZM55.2203 61.34C55.9643 61.34 56.5443 61.188 56.9603 60.884C57.3843 60.58 57.5963 60.168 57.5963 59.648C57.5963 59.128 57.3843 58.72 56.9603 58.424C56.5443 58.12 55.9643 57.968 55.2203 57.968C54.4843 57.968 53.9043 58.12 53.4803 58.424C53.0643 58.72 52.8563 59.128 52.8563 59.648C52.8563 60.176 53.0643 60.592 53.4803 60.896C53.8963 61.192 54.4763 61.34 55.2203 61.34ZM68.2573 55.688V62H67.4773V59.912H65.4973H65.2573L63.7933 62H62.8693L64.4413 59.792C63.9533 59.656 63.5773 59.424 63.3133 59.096C63.0493 58.768 62.9173 58.352 62.9173 57.848C62.9173 57.144 63.1573 56.608 63.6373 56.24C64.1173 55.872 64.7733 55.688 65.6053 55.688H68.2573ZM63.7813 57.872C63.7813 58.808 64.3773 59.276 65.5693 59.276H67.4773V56.444H65.6293C64.3973 56.444 63.7813 56.92 63.7813 57.872ZM70.6866 55.688H71.5386V58.484H75.5106V55.688H76.3626V62H75.5106V59.216H71.5386V62H70.6866V55.688ZM82.8043 58.736C83.6603 58.936 84.0883 59.452 84.0883 60.284C84.0883 60.836 83.8843 61.26 83.4763 61.556C83.0683 61.852 82.4603 62 81.6523 62H78.7843V55.688H81.5683C82.2883 55.688 82.8523 55.828 83.2603 56.108C83.6683 56.388 83.8723 56.788 83.8723 57.308C83.8723 57.652 83.7763 57.948 83.5843 58.196C83.4003 58.436 83.1403 58.616 82.8043 58.736ZM79.6123 58.496H81.5083C81.9963 58.496 82.3683 58.404 82.6243 58.22C82.8883 58.036 83.0203 57.768 83.0203 57.416C83.0203 57.064 82.8883 56.8 82.6243 56.624C82.3683 56.448 81.9963 56.36 81.5083 56.36H79.6123V58.496ZM81.6163 61.328C82.1603 61.328 82.5683 61.24 82.8403 61.064C83.1123 60.888 83.2483 60.612 83.2483 60.236C83.2483 59.86 83.1243 59.584 82.8763 59.408C82.6283 59.224 82.2363 59.132 81.7003 59.132H79.6123V61.328H81.6163ZM86.145 62.06C85.969 62.06 85.817 61.996 85.689 61.868C85.569 61.74 85.509 61.584 85.509 61.4C85.509 61.216 85.569 61.064 85.689 60.944C85.817 60.816 85.969 60.752 86.145 60.752C86.321 60.752 86.473 60.816 86.601 60.944C86.729 61.064 86.793 61.216 86.793 61.4C86.793 61.584 86.729 61.74 86.601 61.868C86.473 61.996 86.321 62.06 86.145 62.06Z" fill="#888A96"/>
    </g>
    <defs>
        <filter id="filter0_dd_1681_14673" x="0" y="0" width="132" height="132" filterUnits="userSpaceOnUse" color-interpolation-filters="sRGB">
            <feFlood flood-opacity="0" result="BackgroundImageFix"/>
            <feColorMatrix in="SourceAlpha" type="matrix" values="0 0 0 0 0 0 0 0 0 0 0 0 0 0 0 0 0 0 127 0" result="hardAlpha"/>
            <feOffset dy="8"/>
            <feGaussianBlur stdDeviation="12"/>
            <feColorMatrix type="matrix" values="0 0 0 0 0 0 0 0 0 0 0 0 0 0 0 0 0 0 0.05 0"/>
            <feBlend mode="normal" in2="BackgroundImageFix" result="effect1_dropShadow_1681_14673"/>
            <feColorMatrix in="SourceAlpha" type="matrix" values="0 0 0 0 0 0 0 0 0 0 0 0 0 0 0 0 0 0 127 0" result="hardAlpha"/>
            <feOffset dy="8"/>
            <feGaussianBlur stdDeviation="4"/>
            <feColorMatrix type="matrix" values="0 0 0 0 0.0627451 0 0 0 0 0.0784314 0 0 0 0 0.176471 0 0 0 0.05 0"/>
            <feBlend mode="normal" in2="effect1_dropShadow_1681_14673" result="effect2_dropShadow_1681_14673"/>
            <feBlend mode="normal" in="SourceGraphic" in2="effect2_dropShadow_1681_14673" result="shape"/>
        </filter>
    </defs>
</svg>
