<svg width="20" height="20" viewBox="0 0 20 20" fill="none" xmlns="http://www.w3.org/2000/svg">
    <path d="M4 12C4 11.4477 4.44772 11 5 11H5.5C6.05228 11 6.5 11.4477 6.5 12C6.5 12.5523 6.05228 13 5.5 13H5C4.44772 13 4 12.5523 4 12Z" fill="#10142D"/>
    <path d="M8 11C7.44772 11 7 11.4477 7 12C7 12.5523 7.44772 13 8 13H8.5C9.05228 13 9.5 12.5523 9.5 12C9.5 11.4477 9.05228 11 8.5 11H8Z" fill="#10142D"/>
    <path d="M10 12C10 11.4477 10.4477 11 11 11H11.5C12.0523 11 12.5 11.4477 12.5 12C12.5 12.5523 12.0523 13 11.5 13H11C10.4477 13 10 12.5523 10 12Z" fill="#10142D"/>
    <path d="M14 11C13.4477 11 13 11.4477 13 12C13 12.5523 13.4477 13 14 13H14.5C15.0523 13 15.5 12.5523 15.5 12C15.5 11.4477 15.0523 11 14.5 11H14Z" fill="#10142D"/>
    <path fill-rule="evenodd" clip-rule="evenodd" d="M1 6C1 4.34315 2.34315 3 4 3H16C17.6569 3 19 4.34315 19 6V14C19 15.6569 17.6569 17 16 17H4C2.34315 17 1 15.6569 1 14V6ZM4 5C3.44772 5 3 5.44772 3 6V14C3 14.5523 3.44772 15 4 15H16C16.5523 15 17 14.5523 17 14V6C17 5.44772 16.5523 5 16 5H4Z" fill="#10142D"/>
</svg>
