<svg width="20" height="20" viewBox="0 0 20 20" fill="none" xmlns="http://www.w3.org/2000/svg">
    <path fill-rule="evenodd" clip-rule="evenodd" d="M13.2929 3.29289C13.6834 2.90237 14.3166 2.90237 14.7071 3.29289L15.7071 4.29289C16.0976 4.68342 16.0976 5.31658 15.7071 5.70711L5.70711 15.7071C5.31658 16.0976 4.68342 16.0976 4.29289 15.7071C3.90237 15.3166 3.90237 14.6834 4.29289 14.2929L9.64911 8.93668C9.5192 8.8881 9.39736 8.81158 9.29289 8.70711C8.90237 8.31658 8.90237 7.68342 9.29289 7.29289L13.2929 3.29289Z" fill="#10142D"/>
    <path fill-rule="evenodd" clip-rule="evenodd" d="M8 15C8 14.4477 8.44772 14 9 14H15C15.5523 14 16 14.4477 16 15C16 15.5523 15.5523 16 15 16H9C8.44772 16 8 15.5523 8 15Z" fill="#10142D"/>
</svg>
