<svg width="20" height="20" viewBox="0 0 20 20" fill="none" xmlns="http://www.w3.org/2000/svg">
    <path fill-rule="evenodd" clip-rule="evenodd" d="M6.37501 2.97092C6.52504 1.84496 7.54534 1 8.75492 1H10.2353C11.4449 1 12.4652 1.84496 12.6152 2.97092L12.7438 3.93606C12.7449 3.93871 12.7481 3.94487 12.756 3.95459C12.773 3.97576 12.8064 4.0057 12.8584 4.03152C13.0171 4.11035 13.1722 4.19455 13.3234 4.28387C13.3729 4.31308 13.4169 4.32517 13.4448 4.32844C13.4575 4.32994 13.4648 4.32948 13.4677 4.32908L14.424 3.95061C15.5384 3.50952 16.8286 3.91596 17.4334 4.89866L18.1736 6.10135C18.7784 7.08405 18.5085 8.33545 17.5441 9.02032L16.716 9.60837C16.7141 9.61058 16.7101 9.61622 16.705 9.62738C16.6941 9.65156 16.6833 9.69314 16.6854 9.74759C16.6887 9.8314 16.6904 9.91554 16.6904 10C16.6904 10.0844 16.6887 10.1686 16.6854 10.2524C16.6833 10.3068 16.6941 10.3484 16.705 10.3726C16.7101 10.3838 16.7141 10.3894 16.716 10.3916L17.5441 10.9797C18.5085 11.6646 18.7784 12.916 18.1736 13.8987L17.4334 15.1013C16.8286 16.084 15.5385 16.4905 14.424 16.0494L13.4678 15.6709C13.4648 15.6705 13.4575 15.6701 13.4448 15.6716C13.4169 15.6748 13.3729 15.6869 13.3235 15.7161C13.1722 15.8054 13.0171 15.8897 12.8584 15.9685C12.8064 15.9943 12.773 16.0242 12.756 16.0454C12.7481 16.0551 12.7449 16.0613 12.7438 16.0639L12.6152 17.0291C12.4652 18.155 11.4449 19 10.2353 19H8.75492C7.54534 19 6.52505 18.155 6.37501 17.0291L6.24641 16.0639C6.24529 16.0613 6.24207 16.0551 6.23423 16.0454C6.21716 16.0242 6.18379 15.9943 6.13181 15.9685C5.97313 15.8897 5.81803 15.8054 5.66676 15.7161C5.6173 15.6869 5.57328 15.6748 5.54541 15.6716C5.53267 15.6701 5.52545 15.6705 5.52246 15.6709L4.56622 16.0494C3.45177 16.4905 2.16159 16.084 1.5568 15.1013L0.816626 13.8987C0.211835 12.916 0.481714 11.6646 1.44614 10.9797L2.27423 10.3916C2.27608 10.3894 2.28014 10.3838 2.28517 10.3726C2.29607 10.3485 2.30691 10.3069 2.30477 10.2524C2.30147 10.1686 2.29981 10.0845 2.29981 10C2.29981 9.91554 2.30147 9.8314 2.30477 9.74759C2.30691 9.69314 2.29607 9.65156 2.28517 9.62738C2.28014 9.61622 2.27608 9.61058 2.27422 9.60837L1.44614 9.02032C0.481714 8.33545 0.211835 7.08405 0.816626 6.10135L1.5568 4.89866C2.16159 3.91596 3.45177 3.50952 4.56622 3.95061L5.52245 4.32908C5.52544 4.32948 5.53266 4.32994 5.5454 4.32844C5.57326 4.32517 5.61729 4.31308 5.66675 4.28387C5.81802 4.19455 5.97314 4.11035 6.13181 4.03152C6.18379 4.0057 6.21716 3.97576 6.23423 3.95459C6.24207 3.94487 6.24529 3.93871 6.24641 3.93606L6.37501 2.97092ZM10.2353 3.25H8.75492L8.62605 4.2172C8.51333 5.06312 7.9186 5.68989 7.25423 6.01993C7.14857 6.07242 7.04521 6.12853 6.94433 6.18809C6.30688 6.56448 5.42997 6.73453 4.59216 6.40294L3.6339 6.02366L2.89373 7.22635L3.72352 7.81561C4.44705 8.32942 4.72929 9.12502 4.70157 9.83049C4.69936 9.88668 4.69824 9.94319 4.69824 10C4.69824 10.0568 4.69936 10.1133 4.70157 10.1695C4.72929 10.875 4.44706 11.6706 3.72352 12.1844L2.89373 12.7737L3.6339 13.9763L4.59218 13.5971C5.42998 13.2655 6.30689 13.4355 6.94434 13.8119C7.04522 13.8715 7.14858 13.9276 7.25423 13.9801C7.9186 14.3101 8.51333 14.9369 8.62605 15.7828L8.75492 16.75L10.2353 16.75L10.3642 15.7828C10.4769 14.9369 11.0716 14.3101 11.736 13.9801C11.8416 13.9276 11.945 13.8715 12.0459 13.8119C12.6833 13.4355 13.5602 13.2655 14.398 13.5971L15.3563 13.9763L16.0965 12.7737L15.2667 12.1844C14.5431 11.6706 14.2609 10.875 14.2886 10.1695C14.2908 10.1133 14.292 10.0568 14.292 10C14.292 9.94319 14.2908 9.88668 14.2886 9.83049C14.2609 9.12502 14.5431 8.32942 15.2667 7.81561L16.0965 7.22635L15.3563 6.02366L14.398 6.40294C13.5602 6.73453 12.6833 6.56448 12.0459 6.18809C11.945 6.12853 11.8416 6.07242 11.736 6.01993C11.0716 5.68989 10.4769 5.06312 10.3642 4.2172L10.2353 3.25Z" fill="#10142D"/>
    <path d="M11.8935 10C11.8935 11.2426 10.8197 12.25 9.4951 12.25C8.17048 12.25 7.09667 11.2426 7.09667 10C7.09667 8.75736 8.17048 7.75 9.4951 7.75C10.8197 7.75 11.8935 8.75736 11.8935 10Z" fill="#10142D"/>
</svg>
