<?xml version="1.0" encoding="utf-8"?>
<!-- Generator: Adobe Illustrator 27.2.0, SVG Export Plug-In . SVG Version: 6.00 Build 0)  -->
<svg version="1.1" xmlns="http://www.w3.org/2000/svg" x="0px" y="0px" viewBox="0 0 47 44" style="enable-background:new 0 0 47 44;" xml:space="preserve">
<style type="text/css">
	.st0{fill:#505050;}
	.st1{fill:none;stroke:#FFFFFF;stroke-width:2;stroke-miterlimit:10;}
	.st2{fill:none;stroke:#FFFFFF;stroke-width:2;stroke-linejoin:round;}
</style>
<g id="Layer_2">
	<path class="st0" d="M37.2,44H10C4.5,44,0,39.5,0,34V10C0,4.5,4.5,0,10,0h27.2c5.5,0,10,4.5,10,10v24C47.3,39.5,42.8,44,37.2,44z"
		/>
</g>
<g id="Layer_1">
	<g id="Layer_2_1_">
		<g id="icons">
			<line class="st1" x1="26.3" y1="5" x2="31.2" y2="5"/>
			<line class="st1" x1="28.8" y1="5" x2="28.8" y2="8.2"/>
			<line class="st1" x1="20.7" y1="11.5" x2="19" y2="9.9"/>
			<line class="st1" x1="17.4" y1="10.7" x2="19.9" y2="8.2"/>
			<line class="st1" x1="36.9" y1="11.5" x2="38.5" y2="9.9"/>
			<line class="st1" x1="40.1" y1="10.7" x2="37.7" y2="8.2"/>
			<line class="st1" x1="28.8" y1="22.8" x2="28.8" y2="14.7"/>
			<path class="st1" d="M16.2,18c1.7-7,8.7-11.2,15.7-9.4s11.2,8.7,9.4,15.7c-1,4.1-3.9,7.3-7.7,8.8"/>
			<path class="st1" d="M12.6,26.9c-1.8,0-3.2-1.5-3.2-3.3c0-0.1,0-0.1,0-0.2v-1.1c0-1.8,1.5-3.2,3.2-3.2s3.2,1.5,3.2,3.2v1.1
				c0.1,1.8-1.3,3.4-3.1,3.5C12.6,26.9,12.6,26.9,12.6,26.9z"/>
			<path class="st1" d="M5.3,39c0,0,0.6-4.5,0.8-6.5c0.2-1.9,1.5-3.2,3.2-3.2h1.6l5.7,6.5h4.9c0,0,0.4,3.2-2.4,3.2h-4.9l-4.1-4.9"/>
			<polyline class="st2" points="17.4,33.3 20.7,28.5 33.6,28.5 28.8,36.6 23.1,36.6 			"/>
			<line class="st2" x1="10.9" y1="39" x2="35.2" y2="39"/>
			<line class="st1" x1="28.8" y1="10.7" x2="28.8" y2="13.1"/>
			<line class="st1" x1="22" y1="13.1" x2="23.6" y2="15"/>
			<line class="st1" x1="18.4" y1="19.3" x2="20.7" y2="19.8"/>
			<line class="st1" x1="37.9" y1="26.5" x2="35.8" y2="25.2"/>
			<line class="st1" x1="39.1" y1="19.3" x2="36.7" y2="19.8"/>
			<line class="st1" x1="35.5" y1="13.1" x2="33.9" y2="15"/>
		</g>
	</g>
</g>
</svg>
