<svg width="24" height="24" viewBox="0 0 24 24" fill="none" xmlns="http://www.w3.org/2000/svg">
    <mask id="path-1-inside-1_558_1119" fill="white">
        <path d="M23 12C23.5523 12 24.0043 11.5515 23.9584 11.0011C23.7895 8.97993 23.1105 7.02859 21.9776 5.33316C20.6591 3.35977 18.7849 1.8217 16.5922 0.913446C14.3995 0.005194 11.9867 -0.232446 9.65892 0.230577C7.33114 0.693599 5.19295 1.83649 3.51472 3.51472C1.83649 5.19295 0.693599 7.33114 0.230577 9.65892C-0.232446 11.9867 0.00519403 14.3995 0.913446 16.5922C1.8217 18.7849 3.35977 20.6591 5.33316 21.9776C7.02859 23.1105 8.97993 23.7895 11.0011 23.9584C11.5515 24.0043 12 23.5523 12 23V22.77C12 22.2177 11.5511 21.7753 11.0017 21.7189C9.4222 21.5567 7.90063 21.0112 6.57206 20.1235C4.96539 19.0499 3.71314 17.5241 2.97367 15.7388C2.2342 13.9536 2.04072 11.9892 2.4177 10.094C2.79468 8.19876 3.72518 6.45791 5.09155 5.09155C6.45791 3.72518 8.19876 2.79468 10.094 2.4177C11.9892 2.04072 13.9536 2.2342 15.7388 2.97367C17.5241 3.71314 19.0499 4.96539 20.1235 6.57206C21.0112 7.90063 21.5567 9.4222 21.7189 11.0017C21.7753 11.5511 22.2177 12 22.77 12H23Z"/>
    </mask>
    <path d="M23 12C23.5523 12 24.0043 11.5515 23.9584 11.0011C23.7895 8.97993 23.1105 7.02859 21.9776 5.33316C20.6591 3.35977 18.7849 1.8217 16.5922 0.913446C14.3995 0.005194 11.9867 -0.232446 9.65892 0.230577C7.33114 0.693599 5.19295 1.83649 3.51472 3.51472C1.83649 5.19295 0.693599 7.33114 0.230577 9.65892C-0.232446 11.9867 0.00519403 14.3995 0.913446 16.5922C1.8217 18.7849 3.35977 20.6591 5.33316 21.9776C7.02859 23.1105 8.97993 23.7895 11.0011 23.9584C11.5515 24.0043 12 23.5523 12 23V22.77C12 22.2177 11.5511 21.7753 11.0017 21.7189C9.4222 21.5567 7.90063 21.0112 6.57206 20.1235C4.96539 19.0499 3.71314 17.5241 2.97367 15.7388C2.2342 13.9536 2.04072 11.9892 2.4177 10.094C2.79468 8.19876 3.72518 6.45791 5.09155 5.09155C6.45791 3.72518 8.19876 2.79468 10.094 2.4177C11.9892 2.04072 13.9536 2.2342 15.7388 2.97367C17.5241 3.71314 19.0499 4.96539 20.1235 6.57206C21.0112 7.90063 21.5567 9.4222 21.7189 11.0017C21.7753 11.5511 22.2177 12 22.77 12H23Z" fill="#E65858" stroke="white" stroke-width="4" mask="url(#path-1-inside-1_558_1119)"/>
    <circle cx="12" cy="12" r="8" fill="white"/>
</svg>
